<svg width="44" height="37" viewBox="0 0 44 37" fill="none" xmlns="http://www.w3.org/2000/svg">
<path d="M22.0013 35.7493L39.4544 18.0462C41.2861 16.2146 42.3151 13.7303 42.3151 11.14C42.3151 8.54961 41.2861 6.06536 39.4544 4.23371C37.6228 2.40206 35.1385 1.37305 32.5482 1.37305C29.9578 1.37305 27.4736 2.40206 25.6419 4.23371L22.0013 7.62433L18.3607 4.23371C16.529 2.40206 14.0448 1.37305 11.4544 1.37305C8.86407 1.37305 6.37981 2.40206 4.54816 4.23371C2.71651 6.06536 1.6875 8.54961 1.6875 11.14C1.6875 13.7303 2.71651 16.2146 4.54816 18.0462L22.0013 35.7493Z" stroke="black" stroke-width="2.5" stroke-linecap="round" stroke-linejoin="round"/>
</svg>
