<?xml version="1.0" encoding="utf-8"?>
<svg fill="none" height="67" viewBox="0 0 67 67" width="67" xmlns="http://www.w3.org/2000/svg">
<g clip-path="url(#clip0_1613_716)">
<path d="M33.3336 58.6666L56.6044 35.0624C59.0466 32.6202 60.4186 29.3079 60.4186 25.8541C60.4186 22.4003 59.0466 19.088 56.6044 16.6458C54.1622 14.2036 50.8499 12.8315 47.3961 12.8315C43.9423 12.8315 40.63 14.2036 38.1878 16.6458L33.3336 21.1666L28.4794 16.6458C26.0372 14.2036 22.7249 12.8315 19.2711 12.8315C15.8173 12.8315 12.505 14.2036 10.0628 16.6458C7.62055 19.088 6.24854 22.4003 6.24854 25.8541C6.24854 29.3079 7.62055 32.6202 10.0628 35.0624L33.3336 58.6666Z" stroke="#FFFFFF" stroke-linecap="round" stroke-linejoin="round" stroke-width="3.33333"/>
</g>
<defs>
<clipPath id="clip0_1613_716">
<rect fill="#FFFFFF" height="66.6667" transform="translate(0.000488281 0.333374)" width="66.6667"/>
</clipPath>
</defs>
</svg>