<svg width="45" height="38" viewBox="0 0 45 38" fill="none" xmlns="http://www.w3.org/2000/svg">
<path d="M42.636 0.244141H28.6949C27.4925 0.244141 26.3066 0.524088 25.2311 1.06181C24.1557 1.59954 23.2202 2.38027 22.4988 3.34218C21.7773 2.38027 20.8419 1.59954 19.7664 1.06181C18.691 0.524088 17.5051 0.244141 16.3027 0.244141H2.36152C1.95069 0.244141 1.55669 0.407341 1.2662 0.697838C0.9757 0.988336 0.8125 1.38233 0.8125 1.79316V29.6755C0.8125 30.0863 0.9757 30.4803 1.2662 30.7708C1.55669 31.0613 1.95069 31.2245 2.36152 31.2245H16.3027C17.5352 31.2245 18.7172 31.7141 19.5887 32.5856C20.4602 33.4571 20.9498 34.6391 20.9498 35.8716C20.9498 36.2824 21.113 36.6764 21.4035 36.9669C21.6939 37.2574 22.0879 37.4206 22.4988 37.4206C22.9096 37.4206 23.3036 37.2574 23.5941 36.9669C23.8846 36.6764 24.0478 36.2824 24.0478 35.8716C24.0478 34.6391 24.5374 33.4571 25.4089 32.5856C26.2804 31.7141 27.4624 31.2245 28.6949 31.2245H42.636C43.0469 31.2245 43.4409 31.0613 43.7314 30.7708C44.0218 30.4803 44.185 30.0863 44.185 29.6755V1.79316C44.185 1.38233 44.0218 0.988336 43.7314 0.697838C43.4409 0.407341 43.0469 0.244141 42.636 0.244141ZM16.3027 28.1265H3.91054V3.34218H16.3027C17.5352 3.34218 18.7172 3.83178 19.5887 4.70327C20.4602 5.57476 20.9498 6.75676 20.9498 7.98924V29.6755C19.6104 28.6676 17.9789 28.1238 16.3027 28.1265ZM41.087 28.1265H28.6949C27.0186 28.1238 25.3872 28.6676 24.0478 29.6755V7.98924C24.0478 6.75676 24.5374 5.57476 25.4089 4.70327C26.2804 3.83178 27.4624 3.34218 28.6949 3.34218H41.087V28.1265ZM28.6949 7.98924H36.44C36.8508 7.98924 37.2448 8.15244 37.5353 8.44294C37.8258 8.73343 37.989 9.12743 37.989 9.53826C37.989 9.94908 37.8258 10.3431 37.5353 10.6336C37.2448 10.9241 36.8508 11.0873 36.44 11.0873H28.6949C28.284 11.0873 27.89 10.9241 27.5995 10.6336C27.309 10.3431 27.1458 9.94908 27.1458 9.53826C27.1458 9.12743 27.309 8.73343 27.5995 8.44294C27.89 8.15244 28.284 7.98924 28.6949 7.98924ZM37.989 15.7343C37.989 16.1452 37.8258 16.5392 37.5353 16.8297C37.2448 17.1202 36.8508 17.2834 36.44 17.2834H28.6949C28.284 17.2834 27.89 17.1202 27.5995 16.8297C27.309 16.5392 27.1458 16.1452 27.1458 15.7343C27.1458 15.3235 27.309 14.9295 27.5995 14.639C27.89 14.3485 28.284 14.1853 28.6949 14.1853H36.44C36.8508 14.1853 37.2448 14.3485 37.5353 14.639C37.8258 14.9295 37.989 15.3235 37.989 15.7343ZM37.989 21.9304C37.989 22.3412 37.8258 22.7352 37.5353 23.0257C37.2448 23.3162 36.8508 23.4794 36.44 23.4794H28.6949C28.284 23.4794 27.89 23.3162 27.5995 23.0257C27.309 22.7352 27.1458 22.3412 27.1458 21.9304C27.1458 21.5196 27.309 21.1256 27.5995 20.8351C27.89 20.5446 28.284 20.3814 28.6949 20.3814H36.44C36.8508 20.3814 37.2448 20.5446 37.5353 20.8351C37.8258 21.1256 37.989 21.5196 37.989 21.9304Z" fill="white"/>
</svg>
