<svg width="28" height="28" viewBox="0 0 28 28" fill="none" xmlns="http://www.w3.org/2000/svg">
<path d="M24.9374 19.1406C24.8375 19.1976 24.7273 19.2343 24.6132 19.2487C24.499 19.263 24.3831 19.2547 24.2722 19.2242C24.1613 19.1938 24.0574 19.1417 23.9666 19.0711C23.8758 19.0004 23.7999 18.9125 23.7431 18.8125L21.6649 15.1812C20.4568 15.9981 19.124 16.6135 17.7187 17.0034L18.3607 20.8556C18.3797 20.969 18.3761 21.085 18.3502 21.197C18.3242 21.3091 18.2765 21.4149 18.2096 21.5084C18.1428 21.602 18.0582 21.6814 17.9606 21.7423C17.8631 21.8031 17.7545 21.8441 17.641 21.8629C17.5944 21.8706 17.5472 21.8746 17.4999 21.875C17.2929 21.8747 17.0928 21.801 16.935 21.667C16.7772 21.533 16.672 21.3475 16.6381 21.1433L16.007 17.3611C14.6761 17.5463 13.326 17.5463 11.9951 17.3611L11.364 21.1433C11.33 21.3478 11.2245 21.5337 11.0663 21.6677C10.908 21.8017 10.7073 21.8752 10.4999 21.875C10.4516 21.8748 10.4033 21.8708 10.3556 21.8629C10.2421 21.8441 10.1335 21.8031 10.036 21.7423C9.93842 21.6814 9.8538 21.602 9.78696 21.5084C9.72012 21.4149 9.67238 21.3091 9.64645 21.197C9.62053 21.085 9.61694 20.969 9.63588 20.8556L10.2812 17.0034C8.87641 16.6123 7.54441 15.9958 6.33713 15.1779L4.26557 18.8125C4.14954 19.0147 3.95794 19.1625 3.73292 19.2234C3.50791 19.2843 3.26791 19.2534 3.06573 19.1373C2.86354 19.0213 2.71573 18.8297 2.65481 18.6047C2.59389 18.3797 2.62485 18.1397 2.74088 17.9375L4.92838 14.1094C4.16002 13.4455 3.45348 12.7134 2.81744 11.9219C2.73812 11.8333 2.67768 11.7295 2.63981 11.6168C2.60194 11.5041 2.58744 11.3849 2.59718 11.2664C2.60693 11.1479 2.64071 11.0326 2.69649 10.9276C2.75226 10.8226 2.82884 10.7301 2.92156 10.6557C3.01428 10.5813 3.1212 10.5265 3.23578 10.4948C3.35036 10.4631 3.4702 10.455 3.58799 10.4712C3.70578 10.4873 3.81905 10.5273 3.92088 10.5887C4.02271 10.65 4.11096 10.7315 4.18026 10.8281C5.99588 13.0747 9.17213 15.75 13.9999 15.75C18.8278 15.75 22.004 13.0714 23.8196 10.8281C23.8881 10.7295 23.9762 10.6461 24.0783 10.583C24.1805 10.5199 24.2945 10.4785 24.4133 10.4614C24.5321 10.4442 24.6532 10.4517 24.769 10.4834C24.8848 10.515 24.9928 10.5702 25.0864 10.6454C25.18 10.7206 25.2571 10.8143 25.3129 10.9206C25.3687 11.0269 25.402 11.1435 25.4108 11.2632C25.4196 11.383 25.4037 11.5032 25.364 11.6165C25.3244 11.7298 25.2618 11.8338 25.1803 11.9219C24.5442 12.7134 23.8377 13.4455 23.0693 14.1094L25.2568 17.9375C25.3155 18.0373 25.3539 18.1477 25.3696 18.2624C25.3853 18.3771 25.3781 18.4938 25.3484 18.6057C25.3187 18.7177 25.2671 18.8226 25.1965 18.9144C25.126 19.0062 25.0379 19.0831 24.9374 19.1406Z" fill="black"/>
</svg>
