<svg width="42" height="42" viewBox="0 0 42 42" fill="none" xmlns="http://www.w3.org/2000/svg">
<path d="M21 39.75C31.3553 39.75 39.75 31.3553 39.75 21C39.75 10.6447 31.3553 2.25 21 2.25C10.6447 2.25 2.25 10.6447 2.25 21C2.25 31.3553 10.6447 39.75 21 39.75Z" stroke="white" stroke-width="2.62195" stroke-linecap="round" stroke-linejoin="round"/>
<path d="M21 27.25C25.3147 27.25 28.8125 23.7522 28.8125 19.4375C28.8125 15.1228 25.3147 11.625 21 11.625C16.6853 11.625 13.1875 15.1228 13.1875 19.4375C13.1875 23.7522 16.6853 27.25 21 27.25Z" stroke="white" stroke-width="2.62195" stroke-linecap="round" stroke-linejoin="round"/>
<path d="M8.46094 34.9387C9.63654 32.6231 11.4304 30.6783 13.6436 29.3198C15.8569 27.9613 18.4031 27.2422 21 27.2422C23.5969 27.2422 26.1431 27.9613 28.3564 29.3198C30.5696 30.6783 32.3635 32.6231 33.5391 34.9387" stroke="white" stroke-width="2.62195" stroke-linecap="round" stroke-linejoin="round"/>
</svg>
