<svg width="67" height="68" viewBox="0 0 67 68" fill="none" xmlns="http://www.w3.org/2000/svg">
<g clip-path="url(#clip0_1613_719)">
<path d="M33.6665 59.0001C47.4736 59.0001 58.6665 47.8072 58.6665 34.0001C58.6665 20.193 47.4736 9.00012 33.6665 9.00012C19.8594 9.00012 8.6665 20.193 8.6665 34.0001C8.6665 47.8072 19.8594 59.0001 33.6665 59.0001Z" stroke="black" stroke-width="3.49593" stroke-linecap="round" stroke-linejoin="round"/>
<path d="M33.6667 42.3335C39.4196 42.3335 44.0833 37.6698 44.0833 31.9168C44.0833 26.1638 39.4196 21.5001 33.6667 21.5001C27.9137 21.5001 23.25 26.1638 23.25 31.9168C23.25 37.6698 27.9137 42.3335 33.6667 42.3335Z" stroke="black" stroke-width="3.49593" stroke-linecap="round" stroke-linejoin="round"/>
<path d="M16.9478 52.586C18.5152 49.4985 20.907 46.9054 23.858 45.0941C26.809 43.2828 30.2039 42.324 33.6665 42.324C37.1291 42.324 40.524 43.2828 43.475 45.0941C46.426 46.9054 48.8178 49.4985 50.3853 52.586" stroke="black" stroke-width="3.49593" stroke-linecap="round" stroke-linejoin="round"/>
</g>
<defs>
<clipPath id="clip0_1613_719">
<rect width="66.6667" height="66.6667" fill="white" transform="translate(0.333496 0.666748)"/>
</clipPath>
</defs>
</svg>
