<svg width="53" height="53" viewBox="0 0 53 53" fill="none" xmlns="http://www.w3.org/2000/svg">
<path d="M46.375 26.5C46.375 26.9393 46.2005 27.3605 45.8899 27.6711C45.5793 27.9818 45.158 28.1562 44.7188 28.1562H8.28125C7.84199 28.1562 7.42071 27.9818 7.1101 27.6711C6.7995 27.3605 6.625 26.9393 6.625 26.5C6.625 26.0607 6.7995 25.6395 7.1101 25.3289C7.42071 25.0182 7.84199 24.8438 8.28125 24.8438H44.7188C45.158 24.8438 45.5793 25.0182 45.8899 25.3289C46.2005 25.6395 46.375 26.0607 46.375 26.5ZM8.28125 14.9062H44.7188C45.158 14.9062 45.5793 14.7318 45.8899 14.4211C46.2005 14.1105 46.375 13.6893 46.375 13.25C46.375 12.8107 46.2005 12.3895 45.8899 12.0789C45.5793 11.7682 45.158 11.5938 44.7188 11.5938H8.28125C7.84199 11.5938 7.42071 11.7682 7.1101 12.0789C6.7995 12.3895 6.625 12.8107 6.625 13.25C6.625 13.6893 6.7995 14.1105 7.1101 14.4211C7.42071 14.7318 7.84199 14.9062 8.28125 14.9062ZM44.7188 38.0938H8.28125C7.84199 38.0938 7.42071 38.2682 7.1101 38.5789C6.7995 38.8895 6.625 39.3107 6.625 39.75C6.625 40.1893 6.7995 40.6105 7.1101 40.9211C7.42071 41.2318 7.84199 41.4062 8.28125 41.4062H44.7188C45.158 41.4062 45.5793 41.2318 45.8899 40.9211C46.2005 40.6105 46.375 40.1893 46.375 39.75C46.375 39.3107 46.2005 38.8895 45.8899 38.5789C45.5793 38.2682 45.158 38.0938 44.7188 38.0938Z" fill="black"/>
</svg>
