<svg width="34" height="34" viewBox="0 0 34 34" fill="none" xmlns="http://www.w3.org/2000/svg">
<circle opacity="0.6" cx="17" cy="17" r="17" fill="#FAF5FF"/>
<path d="M17 26L24.7326 18.2753C25.5441 17.4761 26 16.3921 26 15.2618C26 14.1315 25.5441 13.0475 24.7326 12.2482C23.9211 11.449 22.8204 11 21.6728 11C20.5251 11 19.4245 11.449 18.613 12.2482L17 13.7277L15.387 12.2482C14.5755 11.449 13.4749 11 12.3272 11C11.1796 11 10.0789 11.449 9.26741 12.2482C8.4559 13.0475 8 14.1315 8 15.2618C8 16.3921 8.4559 17.4761 9.26741 18.2753L17 26Z" fill="#5F0B38"/>
</svg>
