<svg width="24" height="24" viewBox="0 0 24 24" fill="none" xmlns="http://www.w3.org/2000/svg">
<g opacity="0.8">
<circle cx="12" cy="12" r="11.7868" fill="white" stroke="#888888" stroke-width="0.426471"/>
<path d="M11.9994 18.3529L17.4577 12.9001C18.0306 12.336 18.3524 11.5708 18.3524 10.773C18.3524 9.9751 18.0306 9.20993 17.4577 8.64576C16.8849 8.08159 16.108 7.76465 15.2979 7.76465C14.4878 7.76465 13.7108 8.08159 13.138 8.64576L11.9994 9.69011L10.8609 8.64576C10.288 8.08159 9.5111 7.76465 8.70099 7.76465C7.89089 7.76465 7.11396 8.08159 6.54113 8.64576C5.9683 9.20993 5.64648 9.9751 5.64648 10.773C5.64648 11.5708 5.9683 12.336 6.54113 12.9001L11.9994 18.3529Z" stroke="black" stroke-width="0.426471" stroke-linecap="round" stroke-linejoin="round"/>
</g>
</svg>
