<svg width="17" height="31" viewBox="0 0 17 31" fill="none" xmlns="http://www.w3.org/2000/svg">
<path d="M16.4911 16.0986L2.73781 29.8486C2.61003 29.9763 2.45833 30.0777 2.29137 30.1468C2.12442 30.2159 1.94548 30.2515 1.76477 30.2515C1.58405 30.2515 1.40511 30.2159 1.23816 30.1468C1.0712 30.0777 0.919502 29.9763 0.79172 29.8486C0.663937 29.7208 0.562575 29.5692 0.49342 29.4022C0.424265 29.2353 0.388672 29.0564 0.388672 28.8758C0.388672 28.6951 0.424265 28.5162 0.49342 28.3493C0.562575 28.1824 0.663937 28.0307 0.79172 27.903L13.5737 15.1258L0.79172 2.34858C0.533652 2.09057 0.388672 1.74064 0.388672 1.37576C0.388672 1.01089 0.533652 0.660958 0.79172 0.402952C1.04979 0.144946 1.3998 2.71853e-09 1.76477 0C2.12973 -2.71853e-09 2.47974 0.144946 2.73781 0.402952L16.4911 14.153C16.619 14.2807 16.7204 14.4323 16.7896 14.5992C16.8588 14.7661 16.8945 14.9451 16.8945 15.1258C16.8945 15.3065 16.8588 15.4854 16.7896 15.6523C16.7204 15.8192 16.619 15.9709 16.4911 16.0986Z" fill="black"/>
</svg>
