<svg width="17" height="31" viewBox="0 0 17 31" fill="none" xmlns="http://www.w3.org/2000/svg">
<path d="M0.403376 14.1529L14.1534 0.402885C14.2811 0.275135 14.4328 0.173798 14.5997 0.10466C14.7666 0.0355206 14.9455 -6.67572e-05 15.1262 -6.67572e-05C15.3069 -6.67572e-05 15.4858 0.0355206 15.6527 0.10466C15.8196 0.173798 15.9713 0.275135 16.099 0.402885C16.2268 0.530638 16.3281 0.682301 16.3972 0.849216C16.4664 1.01613 16.502 1.19503 16.502 1.3757C16.502 1.55637 16.4664 1.73527 16.3972 1.90218C16.3281 2.0691 16.2268 2.22076 16.099 2.34851L3.32009 15.1257L16.099 27.9029C16.357 28.1609 16.502 28.5108 16.502 28.8757C16.502 29.2406 16.357 29.5905 16.099 29.8485C15.841 30.1065 15.4911 30.2515 15.1262 30.2515C14.7613 30.2515 14.4114 30.1065 14.1534 29.8485L0.403376 16.0985C0.275534 15.9708 0.174114 15.8192 0.104918 15.6522C0.0357227 15.4853 0.000108719 15.3064 0.000108719 15.1257C0.000108719 14.945 0.0357227 14.7661 0.104918 14.5992C0.174114 14.4322 0.275534 14.2806 0.403376 14.1529Z" fill="black"/>
</svg>
