<svg width="66" height="66" viewBox="0 0 66 66" fill="none" xmlns="http://www.w3.org/2000/svg">
<path d="M57.7508 17.3509C57.7368 16.1096 57.4725 14.8839 56.9736 13.7472C56.4748 12.6105 55.7518 11.5861 54.8478 10.7354C51.2384 7.31167 45.3809 7.44057 41.7973 11.0267L36.8164 16.036C35.6401 14.9639 34.0958 14.3863 32.5047 14.4233C30.9135 14.4602 29.3978 15.1089 28.2725 16.2346L25.9522 18.5549C25.5687 18.938 25.2644 19.3929 25.0568 19.8937C24.8492 20.3944 24.7424 20.9312 24.7424 21.4733C24.7424 22.0154 24.8492 22.5522 25.0568 23.0529C25.2644 23.5537 25.5687 24.0086 25.9522 24.3917L26.4678 24.9228L13.3194 38.0713C12.0538 39.327 11.1377 40.8912 10.6616 42.6094C10.1854 44.3275 10.1658 46.1401 10.6046 47.8682L8.5421 52.6145C8.25445 53.2667 8.17118 53.9908 8.30327 54.6912C8.43536 55.3917 8.7766 56.0357 9.28202 56.5384C9.86665 57.1269 10.6159 57.5244 11.431 57.6786C12.246 57.8328 13.0887 57.7364 13.8479 57.4021L18.3648 55.4298C20.0618 55.8138 21.8284 55.7609 23.4994 55.2762C25.1705 54.7915 26.6912 53.8908 27.9193 52.6583L41.0677 39.5099L41.5988 40.041C42.3723 40.814 43.4211 41.2482 44.5147 41.2482C45.6082 41.2482 46.657 40.814 47.4305 40.041L49.7509 37.7207C50.8784 36.5939 51.5276 35.0755 51.5631 33.4818C51.5987 31.8882 51.0178 30.3423 49.9416 29.1664L55.0334 24.0437C55.9137 23.1686 56.6081 22.1247 57.0751 20.9746C57.542 19.8245 57.7718 18.592 57.7508 17.3509ZM25.0086 49.7579C24.2149 50.5533 23.2196 51.1175 22.1295 51.39C21.0394 51.6625 19.8957 51.6331 18.8211 51.3048C18.3499 51.1595 17.8423 51.1879 17.3902 51.3847L12.7238 53.424L14.6961 48.8324C14.9007 48.3633 14.9237 47.835 14.7605 47.35C14.3868 46.2578 14.3276 45.0826 14.5897 43.9585C14.8518 42.8343 15.4247 41.8065 16.243 40.9923L29.3914 27.8439L38.1416 36.6095L25.0086 49.7579ZM52.1124 21.1407L45.5717 27.7201C45.186 28.1068 44.9694 28.6306 44.9694 29.1767C44.9694 29.7229 45.186 30.2467 45.5717 30.6334L46.8324 31.8941C47.0242 32.0856 47.1763 32.3131 47.2801 32.5635C47.3839 32.8139 47.4373 33.0823 47.4373 33.3533C47.4373 33.6244 47.3839 33.8927 47.2801 34.1431C47.1763 34.3935 47.0242 34.621 46.8324 34.8125L44.5121 37.1328L28.8758 21.4656L31.1961 19.1453C31.5828 18.7588 32.1072 18.5416 32.654 18.5416C33.2008 18.5416 33.7252 18.7588 34.1119 19.1453L35.3726 20.406C35.5642 20.5981 35.7919 20.7506 36.0425 20.8546C36.2931 20.9586 36.5618 21.0122 36.8332 21.0122C37.1045 21.0122 37.3732 20.9586 37.6238 20.8546C37.8744 20.7506 38.1021 20.5981 38.2937 20.406L44.7235 13.9374C46.737 11.9214 50.0087 11.8285 52.017 13.7286C52.5187 14.2025 52.9201 14.7722 53.1975 15.404C53.475 16.0359 53.6227 16.717 53.6321 17.407C53.6415 18.097 53.5123 18.7818 53.2521 19.421C52.992 20.0601 52.6062 20.6405 52.1176 21.1278L52.1124 21.1407Z" fill="black"/>
</svg>
