<svg width="66" height="66" viewBox="0 0 66 66" fill="none" xmlns="http://www.w3.org/2000/svg">
<path d="M44.8594 12.31C41.6748 8.63211 38.0906 5.32029 34.173 2.43575C33.8263 2.19282 33.4131 2.0625 32.9897 2.0625C32.5663 2.0625 32.1531 2.19282 31.8063 2.43575C27.896 5.3215 24.3187 8.63327 21.1406 12.31C14.0534 20.4491 10.3125 29.0291 10.3125 37.1244C10.3125 43.1415 12.7028 48.9122 16.9575 53.1669C21.2122 57.4216 26.9829 59.8119 33 59.8119C39.0171 59.8119 44.7878 57.4216 49.0425 53.1669C53.2972 48.9122 55.6875 43.1415 55.6875 37.1244C55.6875 29.0291 51.9466 20.4491 44.8594 12.31ZM33 55.6869C28.0786 55.6815 23.3603 53.724 19.8804 50.2441C16.4004 46.7641 14.443 42.0458 14.4375 37.1244C14.4375 22.3698 28.7384 10.0541 33 6.70255C37.2616 10.0541 51.5625 22.3647 51.5625 37.1244C51.557 42.0458 49.5996 46.7641 46.1196 50.2441C42.6397 53.724 37.9214 55.6815 33 55.6869ZM47.4091 39.5324C46.8743 42.5197 45.4371 45.2714 43.291 47.4171C41.1448 49.5628 38.3928 50.9994 35.4054 51.5336C35.292 51.5517 35.1774 51.5612 35.0625 51.5619C34.5451 51.5618 34.0467 51.3672 33.6661 51.0168C33.2855 50.6664 33.0504 50.1858 33.0076 49.6702C32.9648 49.1546 33.1173 48.6417 33.4349 48.2333C33.7525 47.8249 34.2119 47.5508 34.7222 47.4653C38.9941 46.746 42.619 43.1211 43.3434 38.8415C43.4351 38.302 43.7372 37.821 44.1835 37.5043C44.6298 37.1876 45.1836 37.0612 45.723 37.1528C46.2625 37.2444 46.7435 37.5466 47.0602 37.9929C47.3769 38.4391 47.5033 38.9929 47.4117 39.5324H47.4091Z" fill="black"/>
</svg>
