<svg width="66" height="66" viewBox="0 0 66 66" fill="none" xmlns="http://www.w3.org/2000/svg">
<path d="M47.4375 12.5838V8.25C47.4375 7.15598 47.0029 6.10677 46.2293 5.33318C45.4557 4.5596 44.4065 4.125 43.3125 4.125H22.6875C21.5935 4.125 20.5443 4.5596 19.7707 5.33318C18.9971 6.10677 18.5625 7.15598 18.5625 8.25V12.5838C16.2347 13.0615 14.1429 14.3273 12.64 16.168C11.1371 18.0086 10.315 20.3112 10.3125 22.6875V51.5625C10.3125 54.2975 11.399 56.9206 13.333 58.8545C15.2669 60.7885 17.89 61.875 20.625 61.875H45.375C48.11 61.875 50.7331 60.7885 52.667 58.8545C54.601 56.9206 55.6875 54.2975 55.6875 51.5625V22.6875C55.685 20.3112 54.8629 18.0086 53.36 16.168C51.8571 14.3273 49.7653 13.0615 47.4375 12.5838ZM14.4375 28.875H51.5625V45.375H14.4375V28.875ZM43.3125 12.375H39.1875V8.25H43.3125V12.375ZM30.9375 12.375V8.25H35.0625V12.375H30.9375ZM26.8125 8.25V12.375H22.6875V8.25H26.8125ZM20.625 16.5H45.375C47.016 16.5 48.5898 17.1519 49.7502 18.3123C50.9106 19.4727 51.5625 21.0465 51.5625 22.6875V24.75H14.4375V22.6875C14.4375 21.0465 15.0894 19.4727 16.2498 18.3123C17.4102 17.1519 18.984 16.5 20.625 16.5ZM45.375 57.75H20.625C18.984 57.75 17.4102 57.0981 16.2498 55.9377C15.0894 54.7773 14.4375 53.2035 14.4375 51.5625V49.5H51.5625V51.5625C51.5625 53.2035 50.9106 54.7773 49.7502 55.9377C48.5898 57.0981 47.016 57.75 45.375 57.75Z" fill="black"/>
</svg>
