<svg width="36" height="36" viewBox="0 0 36 36" fill="none" xmlns="http://www.w3.org/2000/svg">
<circle cx="18" cy="18" r="18" fill="#ECC46F"/>
<path d="M26.7806 18.5306L20.0306 25.2806C19.8899 25.4213 19.699 25.5003 19.5 25.5003C19.301 25.5003 19.1101 25.4213 18.9694 25.2806C18.8286 25.1398 18.7496 24.949 18.7496 24.7499C18.7496 24.5509 18.8286 24.36 18.9694 24.2193L24.4397 18.7499H9.75C9.55109 18.7499 9.36032 18.6709 9.21967 18.5303C9.07902 18.3896 9 18.1988 9 17.9999C9 17.801 9.07902 17.6103 9.21967 17.4696C9.36032 17.3289 9.55109 17.2499 9.75 17.2499H24.4397L18.9694 11.7806C18.8286 11.6398 18.7496 11.449 18.7496 11.2499C18.7496 11.0509 18.8286 10.86 18.9694 10.7193C19.1101 10.5786 19.301 10.4995 19.5 10.4995C19.699 10.4995 19.8899 10.5786 20.0306 10.7193L26.7806 17.4693C26.8504 17.539 26.9057 17.6217 26.9434 17.7127C26.9812 17.8038 27.0006 17.9014 27.0006 17.9999C27.0006 18.0985 26.9812 18.1961 26.9434 18.2871C26.9057 18.3782 26.8504 18.4609 26.7806 18.5306Z" fill="black"/>
</svg>
