<svg width="36" height="36" viewBox="0 0 36 36" fill="none" xmlns="http://www.w3.org/2000/svg">
<circle cx="18" cy="18" r="18" fill="#ECC46F"/>
<path d="M17.469 26.7806L10.719 20.0306C10.5782 19.8899 10.4992 19.699 10.4992 19.5C10.4992 19.301 10.5782 19.1101 10.719 18.9694C10.8597 18.8286 11.0506 18.7496 11.2496 18.7496C11.4486 18.7496 11.6395 18.8286 11.7802 18.9694L17.2496 24.4397V9.75C17.2496 9.55109 17.3286 9.36032 17.4693 9.21967C17.6099 9.07902 17.8007 9 17.9996 9C18.1985 9 18.3893 9.07902 18.5299 9.21967C18.6706 9.36032 18.7496 9.55109 18.7496 9.75V24.4397L24.219 18.9694C24.3597 18.8286 24.5506 18.7496 24.7496 18.7496C24.9486 18.7496 25.1395 18.8286 25.2802 18.9694C25.4209 19.1101 25.5 19.301 25.5 19.5C25.5 19.699 25.4209 19.8899 25.2802 20.0306L18.5302 26.7806C18.4606 26.8504 18.3778 26.9057 18.2868 26.9434C18.1957 26.9812 18.0981 27.0006 17.9996 27.0006C17.901 27.0006 17.8034 26.9812 17.7124 26.9434C17.6213 26.9057 17.5386 26.8504 17.469 26.7806Z" fill="black"/>
</svg>
