<svg width="51" height="51" viewBox="0 0 51 51" fill="none" xmlns="http://www.w3.org/2000/svg">
<path d="M49.4177 27.3965L30.6574 49.8189C30.2663 50.2864 29.7358 50.549 29.1827 50.549C28.6295 50.549 28.099 50.2864 27.7079 49.8189C27.3168 49.3514 27.097 48.7173 27.097 48.0562C27.097 47.3951 27.3168 46.7611 27.7079 46.2936L42.9115 28.1252H2.08448C1.53164 28.1252 1.00144 27.8628 0.610529 27.3955C0.219614 26.9283 0 26.2946 0 25.6339C0 24.9731 0.219614 24.3394 0.610529 23.8722C1.00144 23.405 1.53164 23.1425 2.08448 23.1425H42.9115L27.7079 4.97415C27.3168 4.50667 27.097 3.87263 27.097 3.21151C27.097 2.55039 27.3168 1.91634 27.7079 1.44886C28.099 0.981379 28.6295 0.71875 29.1827 0.71875C29.7358 0.71875 30.2663 0.981379 30.6574 1.44886L49.4177 23.8712C49.6115 24.1026 49.7653 24.3774 49.8702 24.6798C49.9751 24.9823 50.029 25.3065 50.029 25.6339C50.029 25.9613 49.9751 26.2855 49.8702 26.5879C49.7653 26.8904 49.6115 27.1651 49.4177 27.3965Z" fill="white"/>
</svg>
